<?xml version="1.0" standalone="no"?>
<!DOCTYPE svg PUBLIC "-//W3C//DTD SVG 20010904//EN"
 "http://www.w3.org/TR/2001/REC-SVG-20010904/DTD/svg10.dtd">
<svg version="1.0" xmlns="http://www.w3.org/2000/svg"
 width="225.000000pt" height="225.000000pt" viewBox="0 0 225.000000 225.000000"
 preserveAspectRatio="xMidYMid meet">

<g transform="translate(0.000000,225.000000) scale(0.100000,-0.100000)"
fill="#000000" stroke="none">
<path d="M838 2240 c-77 -23 -128 -98 -128 -188 l0 -52 -52 0 c-114 0 -189
-71 -196 -186 l-4 -64 -51 0 c-68 0 -131 -32 -165 -83 l-27 -41 -3 -725 c-2
-506 0 -737 8 -764 15 -51 62 -102 113 -122 37 -14 105 -15 563 -13 l521 3 41
29 c52 36 82 95 82 164 l0 52 52 0 c114 0 186 68 195 185 l6 65 50 0 c90 0
157 47 185 129 9 25 12 228 12 748 0 621 -2 718 -15 751 -21 49 -52 81 -100
103 -37 17 -74 19 -550 18 -280 0 -522 -4 -537 -9z m1047 -865 l0 -720 -47 -3
-47 -3 -3 614 -3 613 -27 41 c-16 24 -44 49 -70 62 -43 20 -57 21 -436 21
l-392 0 0 43 c0 24 3 47 7 50 3 4 234 6 512 5 l506 -3 0 -720z m-250 -250 l0
-720 -47 -3 -48 -3 0 602 c0 594 0 603 -21 647 -13 26 -38 54 -62 70 l-41 27
-403 3 -403 3 0 43 c0 23 3 46 7 49 3 4 234 6 512 5 l506 -3 0 -720z m-250
-250 l0 -720 -510 0 -510 0 -3 710 c-1 391 0 716 3 723 3 10 111 12 512 10
l508 -3 0 -720z"/>
<path d="M570 1338 c-26 -28 -26 -58 1 -92 l20 -26 225 0 c211 0 225 1 244 20
11 11 20 33 20 50 0 17 -9 39 -20 50 -19 19 -33 20 -245 20 -218 0 -225 -1
-245 -22z"/>
<path d="M593 1060 c-47 -19 -56 -78 -18 -115 l24 -25 274 0 c262 0 275 1 301
21 31 25 34 66 7 100 l-19 24 -274 2 c-150 1 -283 -2 -295 -7z"/>
<path d="M575 745 c-30 -29 -32 -64 -6 -96 l19 -24 287 0 287 0 19 24 c26 32
24 73 -4 99 -23 22 -30 22 -301 22 l-277 0 -24 -25z"/>
<path d="M570 448 c-26 -28 -26 -58 1 -92 l20 -26 285 0 c271 0 285 1 304 20
26 26 26 74 0 100 -19 19 -33 20 -305 20 -280 0 -285 0 -305 -22z"/>
</g>
</svg>
