<?xml version="1.0" standalone="no"?>
<!DOCTYPE svg PUBLIC "-//W3C//DTD SVG 20010904//EN"
 "http://www.w3.org/TR/2001/REC-SVG-20010904/DTD/svg10.dtd">
<svg version="1.0" xmlns="http://www.w3.org/2000/svg"
 width="918.000000pt" height="980.000000pt" viewBox="0 0 918.000000 980.000000"
 preserveAspectRatio="xMidYMid meet">

<g transform="translate(0.000000,980.000000) scale(0.100000,-0.100000)"
fill="#000000" stroke="none">
<path d="M1223 9789 c-97 -18 -175 -86 -215 -188 -17 -45 -22 -83 -26 -198
l-4 -143 -237 0 c-280 0 -383 -11 -455 -47 -82 -41 -164 -134 -225 -252 l-52
-102 4 -2977 c3 -1902 8 -3010 15 -3069 8 -72 17 -104 43 -154 50 -94 148
-186 257 -242 l90 -47 1124 1 c1042 0 1256 4 1274 21 6 6 -22 487 -28 494 -2
1 -506 6 -1121 10 l-1117 7 0 2227 0 2227 1502 6 c826 4 2061 7 2745 7 l1243
0 0 -489 0 -489 243 -5 c133 -3 254 -9 270 -13 l27 -6 0 808 c0 445 -5 1003
-10 1240 -9 416 -10 434 -33 497 -52 143 -147 254 -264 310 l-68 32 -301 3
-301 4 -6 141 c-6 168 -22 228 -80 293 -60 69 -125 98 -217 99 -87 0 -133 -18
-192 -77 -78 -78 -118 -201 -118 -366 l0 -92 -1702 2 -1703 3 -6 150 c-7 165
-19 212 -69 276 -57 71 -189 117 -287 98z m-218 -1494 c51 -197 347 -265 483
-111 64 74 86 144 98 319 l6 88 41 -47 c109 -121 157 -230 157 -354 0 -185
-129 -374 -319 -468 -73 -36 -78 -37 -190 -37 -113 0 -118 1 -195 38 -61 29
-96 55 -155 115 -112 113 -150 203 -151 353 0 129 42 231 143 352 l42 49 13
-118 c6 -65 19 -146 27 -179z m4753 96 c32 -65 37 -84 40 -166 2 -51 -1 -116
-7 -145 -48 -225 -265 -400 -496 -400 -129 0 -244 49 -340 145 -101 101 -155
230 -155 370 1 88 13 144 51 221 28 56 116 170 125 161 2 -2 11 -55 19 -118
19 -156 38 -211 88 -266 60 -66 124 -93 217 -93 92 0 157 27 211 87 58 64 80
137 87 283 l5 125 59 -65 c32 -36 75 -98 96 -139z"/>
<path d="M1912 6683 l3 -338 348 -3 347 -2 0 340 0 340 -350 0 -350 0 2 -337z"/>
<path d="M2940 6680 l0 -340 348 2 347 3 3 338 2 337 -350 0 -350 0 0 -340z"/>
<path d="M3990 6680 l0 -340 335 0 335 0 0 340 0 340 -335 0 -335 0 0 -340z"/>
<path d="M5012 6683 l3 -338 338 -3 337 -2 0 340 0 340 -340 0 -340 0 2 -337z"/>
<path d="M884 5986 c-2 -6 -3 -164 -2 -351 l3 -340 285 3 c157 1 311 5 343 8
l57 6 0 333 0 333 -92 6 c-196 12 -590 13 -594 2z"/>
<path d="M1913 5763 c4 -124 7 -277 7 -340 l0 -113 338 0 339 0 6 203 c4 111
7 264 7 340 l0 137 -352 0 -351 0 6 -227z"/>
<path d="M2982 5983 c-13 -3 -27 -16 -33 -29 -10 -29 -12 -273 -2 -492 l6
-151 61 -5 c34 -3 188 -7 344 -10 l282 -4 0 349 0 349 -317 -1 c-175 -1 -328
-4 -341 -6z"/>
<path d="M3990 5785 c0 -113 2 -205 4 -205 3 0 61 43 129 95 68 51 197 142
286 200 88 58 161 108 161 110 0 3 -130 5 -290 5 l-290 0 0 -205z"/>
<path d="M5915 5914 c-388 -37 -727 -135 -1054 -305 -610 -316 -1152 -911
-1404 -1539 -145 -362 -209 -703 -208 -1120 0 -466 101 -892 310 -1309 622
-1239 2009 -1883 3349 -1555 539 132 1008 398 1408 800 422 424 677 891 789
1449 49 243 59 352 59 645 1 318 -17 473 -84 735 -186 729 -665 1375 -1320
1780 -200 123 -509 260 -730 323 -294 84 -368 94 -755 97 -176 2 -338 1 -360
-1z m578 -670 c188 -17 276 -34 415 -80 371 -124 693 -323 948 -585 248 -256
423 -543 543 -892 86 -251 106 -410 98 -790 -7 -352 -30 -482 -133 -745 -314
-807 -1070 -1397 -1884 -1471 -145 -14 -457 -14 -575 -1 -206 23 -474 108
-712 225 -622 306 -1052 847 -1229 1545 -58 228 -69 567 -29 872 34 264 147
569 308 838 164 273 441 565 686 724 291 188 751 357 1026 376 126 9 334 3
538 -16z"/>
<path d="M6059 4654 c-78 -14 -203 -129 -230 -211 -17 -52 -25 -1455 -10
-1628 10 -101 16 -130 43 -184 43 -88 97 -139 194 -180 383 -162 1156 -458
1344 -514 200 -60 268 -57 368 17 91 66 137 165 136 291 0 96 -34 181 -93 239
-52 50 -259 137 -1011 425 l-285 109 -6 643 c-7 681 -11 747 -55 836 -28 58
-93 113 -165 139 -44 16 -181 26 -230 18z"/>
<path d="M880 4622 l0 -352 178 0 c99 0 254 3 345 7 l167 6 0 339 0 338 -142
0 c-79 0 -234 3 -345 7 l-203 6 0 -351z"/>
<path d="M3012 4960 c-29 -4 -56 -11 -60 -15 -10 -10 -5 -594 6 -630 10 -36
52 -56 76 -36 8 7 46 76 84 154 39 78 122 229 186 335 64 107 116 196 116 198
0 7 -353 2 -408 -6z"/>
<path d="M1924 4948 c-4 -7 -10 -162 -12 -345 l-5 -333 352 0 351 0 0 143 c0
78 -3 233 -7 345 l-6 202 -333 0 c-250 0 -335 -3 -340 -12z"/>
<path d="M954 3933 c-43 -3 -53 -8 -58 -26 -3 -12 -9 -168 -12 -346 l-7 -324
234 6 c129 4 285 7 347 7 l112 0 0 338 0 339 -197 6 c-194 7 -320 7 -419 0z"/>
<path d="M1980 3932 l-55 -7 -6 -75 c-4 -41 -7 -195 -8 -342 l-1 -268 352 0
351 0 -7 342 c-4 188 -8 343 -9 344 -6 6 -571 11 -617 6z"/>
</g>
</svg>
