<?xml version="1.0" standalone="no"?>
<!DOCTYPE svg PUBLIC "-//W3C//DTD SVG 20010904//EN"
 "http://www.w3.org/TR/2001/REC-SVG-20010904/DTD/svg10.dtd">
<svg version="1.0" xmlns="http://www.w3.org/2000/svg"
 width="225.000000pt" height="225.000000pt" viewBox="0 0 225.000000 225.000000"
 preserveAspectRatio="xMidYMid meet">

<g transform="translate(0.000000,225.000000) scale(0.100000,-0.100000)"
fill="#000000" stroke="none">
<path d="M980 2239 c-229 -26 -473 -145 -643 -313 -446 -442 -446 -1162 -1
-1602 232 -229 580 -350 904 -315 493 53 875 399 987 894 20 91 23 337 4 420
-11 51 -17 61 -43 72 -36 15 -60 10 -84 -16 -15 -17 -16 -29 -4 -141 32 -318
-73 -605 -301 -823 -121 -115 -242 -186 -396 -230 -245 -71 -484 -50 -718 65
-195 95 -341 242 -440 445 -78 157 -99 252 -98 435 0 156 14 229 69 367 158
396 581 651 1004 603 236 -26 415 -109 583 -270 106 -100 110 -108 46 -102
-60 6 -89 -14 -89 -63 0 -57 17 -67 141 -86 152 -24 192 -24 213 0 12 13 24
63 38 160 18 129 19 143 5 165 -40 60 -116 34 -130 -45 l-8 -45 -102 101
c-154 153 -282 229 -488 288 -146 43 -289 54 -449 36z"/>
<path d="M1060 1790 c-19 -19 -20 -33 -20 -307 l0 -286 -41 -35 c-69 -59 -86
-129 -50 -208 56 -123 232 -140 304 -29 l22 35 137 0 c143 0 159 4 173 49 9
28 -12 70 -40 81 -15 6 -80 10 -145 10 l-119 0 -50 49 -51 50 0 279 c0 267 -1
280 -21 306 -25 32 -70 35 -99 6z m78 -762 c2 -19 -2 -28 -18 -33 -37 -12 -64
27 -38 53 21 21 53 10 56 -20z"/>
</g>
</svg>
