<?xml version="1.0" standalone="no"?>
<!DOCTYPE svg PUBLIC "-//W3C//DTD SVG 20010904//EN"
 "http://www.w3.org/TR/2001/REC-SVG-20010904/DTD/svg10.dtd">
<svg version="1.0" xmlns="http://www.w3.org/2000/svg"
 width="1200.000000pt" height="1200.000000pt" viewBox="0 0 1200.000000 1200.000000"
 preserveAspectRatio="xMidYMid meet">

<g transform="translate(0.000000,1200.000000) scale(0.100000,-0.100000)"
fill="#000000" stroke="none">
<path d="M6226 11990 c-567 -36 -1152 -164 -1666 -365 -1271 -497 -2319 -1464
-2924 -2695 -52 -105 -93 -173 -138 -227 -655 -795 -1050 -1764 -1144 -2804
-19 -208 -21 -635 -5 -834 36 -433 114 -824 244 -1217 485 -1463 1601 -2628
3047 -3181 1088 -416 2331 -440 3438 -68 586 197 1121 492 1607 886 80 64 135
98 275 167 446 221 843 491 1225 834 1311 1174 1972 2906 1780 4664 -163 1487
-947 2858 -2150 3759 -723 542 -1585 901 -2471 1030 -335 49 -805 70 -1118 51z
m665 -660 c800 -62 1528 -299 2196 -716 939 -585 1657 -1498 2008 -2549 227
-681 299 -1407 210 -2120 -90 -716 -345 -1410 -743 -2020 -885 -1357 -2395
-2175 -4011 -2175 -1043 0 -2045 331 -2866 946 -608 455 -1096 1036 -1429
1701 -259 518 -410 1036 -482 1648 -23 189 -26 765 -6 950 72 658 229 1192
516 1750 419 816 1081 1508 1881 1966 144 82 460 235 610 294 440 174 924 286
1405 324 155 12 556 13 711 1z"/>
<path d="M9854 8850 c-22 -5 -56 -15 -75 -23 -19 -8 -529 -300 -1134 -649
-605 -348 -1111 -639 -1125 -645 -14 -6 -239 -135 -500 -286 -449 -260 -476
-275 -497 -261 -13 8 -60 34 -105 58 -46 24 -580 331 -1188 681 -608 351
-1125 644 -1150 652 -58 18 -165 18 -218 0 -103 -36 -179 -104 -224 -203 -19
-40 -23 -66 -23 -144 0 -83 4 -102 27 -150 15 -30 49 -76 75 -102 37 -36 349
-221 1323 -784 701 -405 1307 -753 1345 -773 64 -33 77 -36 155 -36 57 0 99 6
126 17 22 9 805 458 1740 997 1204 695 1716 995 1756 1031 36 32 67 71 85 108
25 51 28 68 28 157 0 95 -2 103 -34 163 -78 143 -239 223 -387 192z"/>
</g>
</svg>
